<svg id="Layer_1" data-name="Layer 1" xmlns="http://www.w3.org/2000/svg" xmlns:xlink="http://www.w3.org/1999/xlink" viewBox="0 0 788.51 935.63"><defs><style>.cls-1{fill:url(#radial-gradient);}</style><radialGradient id="radial-gradient" cx="394.73" cy="468.25" r="429.56" gradientUnits="userSpaceOnUse"><stop offset="0" stop-color="#452e80"/><stop offset="1" stop-color="#29234f"/></radialGradient></defs><path class="cls-1" d="M724.42,2H65.05A59.79,59.79,0,0,0,5.26,61.83V874.67a59.79,59.79,0,0,0,59.79,59.79H724.42a59.79,59.79,0,0,0,59.79-59.79V61.83A59.79,59.79,0,0,0,724.42,2Zm14.52,767.6a42.83,42.83,0,0,1-42.82,42.83H93.35a42.83,42.83,0,0,1-42.82-42.83V166.87A42.82,42.82,0,0,1,93.35,124H696.12a42.82,42.82,0,0,1,42.82,42.83Z"/></svg>