<svg id="Layer_1" data-name="Layer 1" xmlns="http://www.w3.org/2000/svg" viewBox="0 0 20 12.38"><defs><style>.cls-1{fill:#fff;}</style></defs><path class="cls-1" d="M17.34.53H2.26a1.25,1.25,0,0,0,0,2.5H17.34a1.25,1.25,0,1,0,0-2.5Z"/><path class="cls-1" d="M18.59,10.37a1.25,1.25,0,0,0-1.25-1.25H2.26a1.25,1.25,0,0,0,0,2.5H17.34A1.25,1.25,0,0,0,18.59,10.37Z"/><path class="cls-1" d="M2.48,7.33H17.07a1.37,1.37,0,0,0,1.47-1.25,1.36,1.36,0,0,0-1.47-1.25H2.48A1.36,1.36,0,0,0,1,6.08,1.37,1.37,0,0,0,2.48,7.33Z"/></svg>